<svg width="800" height="400" viewBox="0 0 800 400" xmlns="http://www.w3.org/2000/svg">
    
    
        <defs>
            <mask id="mask_400_200">
                <rect width="100%" height="100%" fill="white"/>
                <circle cx="400" cy="200" r="35" fill="black"/>
            </mask>
        </defs>
        <g mask="url(#mask_400_200)"><g id="gear_400_200"><circle cx="400" cy="200" r="92" fill="#000000" /><rect x="395.0" y="100" width="10" height="8" fill="#000000" transform="rotate(0.0 400 200)" /><rect x="395.0" y="100" width="10" height="8" fill="#000000" transform="rotate(30.0 400 200)" /><rect x="395.0" y="100" width="10" height="8" fill="#000000" transform="rotate(60.0 400 200)" /><rect x="395.0" y="100" width="10" height="8" fill="#000000" transform="rotate(90.0 400 200)" /><rect x="395.0" y="100" width="10" height="8" fill="#000000" transform="rotate(120.0 400 200)" /><rect x="395.0" y="100" width="10" height="8" fill="#000000" transform="rotate(150.0 400 200)" /><rect x="395.0" y="100" width="10" height="8" fill="#000000" transform="rotate(180.0 400 200)" /><rect x="395.0" y="100" width="10" height="8" fill="#000000" transform="rotate(210.0 400 200)" /><rect x="395.0" y="100" width="10" height="8" fill="#000000" transform="rotate(240.0 400 200)" /><rect x="395.0" y="100" width="10" height="8" fill="#000000" transform="rotate(270.0 400 200)" /><rect x="395.0" y="100" width="10" height="8" fill="#000000" transform="rotate(300.0 400 200)" /><rect x="395.0" y="100" width="10" height="8" fill="#000000" transform="rotate(330.0 400 200)" /></g></g>
    </svg>